<svg width="24" height="24" viewBox="0 0 24 24" fill="none" xmlns="http://www.w3.org/2000/svg">
<path d="M18 3.5L20.5 3.5M20.5 3.5L23 3.5M20.5 3.5V6M20.5 3.5V1M4 21.5V20M4 20L4 18.5M4 20H2.5M4 20H5.5M11.929 5.05131C11.4598 8.62433 8.63494 11.4528 5.06364 11.9274C5.02741 11.9322 5 11.963 5 11.9995C5 12.0361 5.02741 12.0669 5.06364 12.0717C8.63073 12.5456 11.4531 15.3689 11.9273 18.9359C11.9321 18.9724 11.9632 19 12 19C12.0368 19 12.0679 18.9724 12.0727 18.9359C12.5469 15.3689 15.3693 12.5456 18.9364 12.0717C18.9726 12.0669 19 12.0361 19 11.9995C19 11.963 18.9726 11.9322 18.9364 11.9274C15.3736 11.4539 12.5537 8.63784 12.0744 5.07693C12.0685 5.03314 12.0313 5 11.9871 5C11.9577 5 11.9328 5.02211 11.929 5.05131Z" stroke="#211408" stroke-width="2" stroke-linecap="round"/>
</svg>
