<svg width="24" height="24" viewBox="0 0 24 24" fill="none" xmlns="http://www.w3.org/2000/svg">
<path d="M4 11.3613C4 10.4962 4.37344 9.67319 5.02449 9.10352L11.3415 3.57614C11.7185 3.24624 12.2815 3.24624 12.6585 3.57614L18.9755 9.10352C19.6266 9.67319 20 10.4962 20 11.3613V19.9999C20 20.5522 19.5523 20.9999 19 20.9999H5C4.44772 20.9999 4 20.5522 4 19.9999V11.3613Z" fill="currentColor"/>
<path d="M12.8732 16.5918H11.115L9.8997 12.3915H9.82891V17.9999H8V9.99995H10.7965L12 14.261L13.2035 9.99995H16V17.9999H14.1711V12.3915H14.1003L12.8732 16.5918Z" fill="#FFFEFD"/>
<path d="M19 11.3613C19 10.7847 18.7512 10.2362 18.3174 9.85639L12.6582 4.90522C12.2812 4.57534 11.7188 4.57534 11.3418 4.90522L5.68262 9.85639C5.24881 10.2362 5 10.7847 5 11.3613V18.9999C5 19.5522 5.44772 19.9999 6 19.9999H18C18.5523 19.9999 19 19.5522 19 18.9999V11.3613ZM21 18.9999C21 20.6568 19.6569 21.9999 18 21.9999H6C4.34315 21.9999 3 20.6568 3 18.9999V11.3613C3 10.2078 3.49815 9.11009 4.36621 8.35053L10.0244 3.39936C11.1554 2.40985 12.8446 2.40985 13.9756 3.39936L19.6338 8.35053C20.5019 9.11009 21 10.2078 21 11.3613V18.9999Z" fill="currentColor"/>
</svg>
