<svg width="24" height="24" viewBox="0 0 24 24" fill="none" xmlns="http://www.w3.org/2000/svg">
<path d="M7 5.5C7 6.60457 6.10457 7.5 5 7.5C3.89543 7.5 3 6.60457 3 5.5C3 4.39543 3.89543 3.5 5 3.5C6.10457 3.5 7 4.39543 7 5.5Z" fill="currentColor"/>
<path d="M7 11.5C7 12.6046 6.10457 13.5 5 13.5C3.89543 13.5 3 12.6046 3 11.5C3 10.3954 3.89543 9.5 5 9.5C6.10457 9.5 7 10.3954 7 11.5Z" fill="currentColor"/>
<path d="M7 17.5C7 18.6046 6.10457 19.5 5 19.5C3.89543 19.5 3 18.6046 3 17.5C3 16.3954 3.89543 15.5 5 15.5C6.10457 15.5 7 16.3954 7 17.5Z" fill="currentColor"/>
<path d="M8.98193 5.5C8.98193 4.94772 9.42965 4.5 9.98193 4.5H17.9819C18.5342 4.5 18.9819 4.94772 18.9819 5.5C18.9819 6.05228 18.5342 6.5 17.9819 6.5H9.98193C9.42965 6.5 8.98193 6.05228 8.98193 5.5Z" fill="currentColor"/>
<path d="M8.98193 11.5C8.98193 10.9477 9.42965 10.5 9.98193 10.5H20.9819C21.5342 10.5 21.9819 10.9477 21.9819 11.5C21.9819 12.0523 21.5342 12.5 20.9819 12.5H9.98193C9.42965 12.5 8.98193 12.0523 8.98193 11.5Z" fill="currentColor"/>
<path d="M8.98193 17.5C8.98193 16.9477 9.42965 16.5 9.98193 16.5H15.9819C16.5342 16.5 16.9819 16.9477 16.9819 17.5C16.9819 18.0523 16.5342 18.5 15.9819 18.5H9.98193C9.42965 18.5 8.98193 18.0523 8.98193 17.5Z" fill="currentColor"/>
</svg>
