<svg width="24" height="24" viewBox="0 0 24 24" fill="none" xmlns="http://www.w3.org/2000/svg">
<path d="M7 5.5C7 6.60457 6.10457 7.5 5 7.5C3.89543 7.5 3 6.60457 3 5.5C3 4.39543 3.89543 3.5 5 3.5C6.10457 3.5 7 4.39543 7 5.5Z" fill="#211408"/>
<path d="M7 11.5C7 12.6046 6.10457 13.5 5 13.5C3.89543 13.5 3 12.6046 3 11.5C3 10.3954 3.89543 9.5 5 9.5C6.10457 9.5 7 10.3954 7 11.5Z" fill="#211408"/>
<path d="M7 17.5C7 18.6046 6.10457 19.5 5 19.5C3.89543 19.5 3 18.6046 3 17.5C3 16.3954 3.89543 15.5 5 15.5C6.10457 15.5 7 16.3954 7 17.5Z" fill="#211408"/>
<path d="M9 5.5C9 4.39543 9.89543 3.5 11 3.5H17C18.1046 3.5 19 4.39543 19 5.5C19 6.60457 18.1046 7.5 17 7.5H11C9.89543 7.5 9 6.60457 9 5.5Z" fill="#211408"/>
<path d="M9 11.5C9 10.3954 9.89543 9.5 11 9.5H20C21.1046 9.5 22 10.3954 22 11.5C22 12.6046 21.1046 13.5 20 13.5H11C9.89543 13.5 9 12.6046 9 11.5Z" fill="#211408"/>
<path d="M9 17.5C9 16.3954 9.89543 15.5 11 15.5H15C16.1046 15.5 17 16.3954 17 17.5C17 18.6046 16.1046 19.5 15 19.5H11C9.89543 19.5 9 18.6046 9 17.5Z" fill="#211408"/>
</svg>
