<svg width="24" height="24" viewBox="0 0 24 24" fill="none" xmlns="http://www.w3.org/2000/svg">
<path d="M10.0244 3.39941C11.1554 2.4099 12.8446 2.4099 13.9756 3.39941L19.6338 8.35059C20.5018 9.11014 21 10.2079 21 11.3613V19C21 20.6568 19.6568 22 18 22H6C4.34316 22 3.00003 20.6568 3 19V11.3613C3 10.2079 3.49817 9.11014 4.36621 8.35059L10.0244 3.39941ZM12.6582 4.90527C12.2812 4.57539 11.7188 4.57539 11.3418 4.90527L5.68262 9.85645C5.24882 10.2362 5 10.7848 5 11.3613V19C5.00003 19.5523 5.44773 20 6 20H18C18.5523 20 19 19.5523 19 19V11.3613C19 10.7848 18.7512 10.2362 18.3174 9.85645L12.6582 4.90527ZM12 14.2607L13.2031 10H16V18H14.1709V12.3916H14.1006L12.873 16.5918H11.1152L9.89941 12.3916H9.8291V18H8V10H10.7969L12 14.2607Z" fill="#211408"/>
</svg>
